<?xml version="1.0" encoding="utf-8"?>
<!-- Uploaded to: SVG Repo, www.svgrepo.com, Generator: SVG Repo Mixer Tools -->
<svg fill="#000000" width="800px" height="800px" viewBox="0 0 32 32" version="1.1" xmlns="http://www.w3.org/2000/svg">
<title>arrow-rotate-left</title>
<path d="M16 1.25c-0.013-0-0.029-0-0.044-0-4.49 0-8.508 2.026-11.187 5.214l-0.018 0.022v-4.769c0-0.414-0.336-0.75-0.75-0.75s-0.75 0.336-0.75 0.75v0 7.071c0.004 0.030 0.010 0.057 0.017 0.082l-0.001-0.005c0.008 0.105 0.040 0.202 0.091 0.285l-0.002-0.003c0.025 0.046 0.052 0.085 0.082 0.122l-0.001-0.001c0.034 0.038 0.071 0.072 0.111 0.102l0.002 0.001c0.020 0.020 0.040 0.039 0.062 0.057l0.001 0.001c0.015 0.009 0.032 0.009 0.048 0.017 0.042 0.021 0.090 0.039 0.141 0.051l0.005 0.001c0.040 0.013 0.087 0.023 0.135 0.028l0.003 0c0.019 0.001 0.036 0.011 0.056 0.011h7.071c0.414 0 0.75-0.336 0.75-0.75s-0.336-0.75-0.75-0.75v0h-5.643c2.419-3.224 6.233-5.288 10.529-5.288 0.015 0 0.030 0 0.045 0h-0.002c7.317 0.002 13.247 5.933 13.247 13.25s-5.932 13.25-13.25 13.25c-5.255 0-9.795-3.059-11.937-7.493l-0.034-0.079c-0.124-0.254-0.38-0.426-0.677-0.426-0.414 0-0.75 0.336-0.75 0.75 0 0.116 0.026 0.226 0.074 0.324l-0.002-0.005c2.423 5.025 7.478 8.431 13.329 8.431 8.147 0 14.751-6.604 14.751-14.751s-6.604-14.751-14.75-14.751h-0z"></path>
</svg>