<?xml version="1.0" encoding="utf-8"?>
<!-- Uploaded to: SVG Repo, www.svgrepo.com, Generator: SVG Repo Mixer Tools -->
<svg fill="#000000" width="800px" height="800px" viewBox="0 0 32 32" version="1.1" xmlns="http://www.w3.org/2000/svg">
<title>file-arrow-up</title>
<path d="M26.731 9.902c-0.005-0.035-0.011-0.066-0.019-0.095l0.001 0.005c-0.031-0.134-0.094-0.249-0.182-0.342l0 0-8-8c-0.092-0.087-0.207-0.15-0.335-0.181l-0.005-0.001c-0.027-0.008-0.059-0.014-0.092-0.019l-0.003-0c-0.026-0.007-0.059-0.014-0.092-0.019l-0.004-0h-12c-0.414 0-0.75 0.336-0.75 0.75v0 28c0 0.414 0.336 0.75 0.75 0.75h20c0.414-0 0.75-0.336 0.75-0.75v0-20c-0.005-0.038-0.012-0.071-0.020-0.103l0.001 0.005zM24.189 9.25h-5.439v-5.439zM6.75 29.25v-26.5h10.5v7.25c0 0.414 0.336 0.75 0.75 0.75h7.25v18.5zM16.53 13.425c-0.124-0.117-0.29-0.191-0.474-0.197l-0.001-0c-0.003-0-0.006-0-0.010-0-0.048 0-0.095 0.005-0.14 0.015l0.004-0.001c-0.009-0-0.019-0.001-0.029-0.001-0.060 0-0.117 0.007-0.173 0.021l0.005-0.001c-0.064 0.026-0.1 0.085-0.153 0.126-0.027 0.021-0.065 0.012-0.090 0.037l-5 4.999c-0.135 0.136-0.218 0.323-0.218 0.529 0 0.415 0.336 0.751 0.751 0.751 0.206 0 0.393-0.083 0.528-0.218l3.72-3.72v10.676c0 0.414 0.336 0.75 0.75 0.75s0.75-0.336 0.75-0.75v0-10.676l3.719 3.721c0.136 0.136 0.324 0.22 0.531 0.22 0.415 0 0.751-0.336 0.751-0.751 0-0.207-0.084-0.395-0.22-0.531v0z"></path>
</svg>